<?xml version="1.0" standalone="no"?>
<!DOCTYPE svg PUBLIC "-//W3C//DTD SVG 20010904//EN"
 "http://www.w3.org/TR/2001/REC-SVG-20010904/DTD/svg10.dtd">
<svg version="1.0" xmlns="http://www.w3.org/2000/svg"
 width="600.000000pt" height="600.000000pt" viewBox="0 0 600.000000 600.000000"
 preserveAspectRatio="xMidYMid meet">
<metadata>
Created by potrace 1.14, written by Peter Selinger 2001-2017
</metadata>
<g transform="translate(0.000000,600.000000) scale(0.100000,-0.100000)"
fill="#000000" stroke="none">
<path d="M1893 5340 c-295 -30 -581 -190 -760 -428 -77 -102 -154 -258 -183
-370 l-24 -90 -56 -7 c-402 -47 -712 -313 -816 -701 -27 -98 -27 -350 0 -449
69 -257 235 -468 466 -594 71 -38 74 -39 113 -25 82 29 172 12 237 -44 l41
-34 216 1 216 2 53 47 c30 26 54 53 54 60 0 9 -69 12 -314 12 -305 0 -316 1
-400 25 -151 44 -266 114 -373 229 -80 84 -134 177 -174 296 -60 178 -50 404
24 572 80 181 228 330 411 413 97 44 182 65 303 72 l102 6 6 41 c36 224 130
413 284 567 371 369 965 380 1349 24 78 -72 139 -150 188 -241 63 -116 68
-119 168 -84 88 30 168 41 287 41 241 -1 431 -81 605 -255 110 -110 170 -207
216 -352 29 -89 36 -104 58 -109 14 -3 42 -17 63 -31 l38 -25 -7 48 c-30 211
-137 417 -296 569 -138 132 -300 218 -493 261 -111 25 -308 20 -423 -9 l-93
-24 -19 37 c-34 66 -139 197 -215 266 -228 210 -540 313 -852 283z"/>
<path d="M5056 4591 c-38 -39 -56 -108 -56 -212 0 -95 12 -142 87 -343 57
-155 72 -229 82 -406 16 -280 -14 -673 -84 -1095 -103 -624 -228 -960 -388
-1040 -63 -31 -94 -32 -138 -2 -120 81 -209 403 -263 957 -26 261 -39 540 -34
752 5 217 19 304 64 407 21 48 23 58 12 94 -16 54 -95 137 -160 169 -109 53
-168 46 -251 -31 l-45 -41 -6 -148 c-18 -383 -72 -790 -167 -1262 -56 -276
-155 -606 -233 -775 -44 -95 -98 -155 -139 -155 -181 0 -308 744 -338 1980
-12 481 -9 681 12 742 14 44 42 72 84 85 29 9 30 12 33 80 l3 70 -52 22 c-120
52 -224 50 -295 -4 l-32 -24 -55 30 c-77 42 -132 46 -247 19 -138 -33 -156
-32 -231 18 -115 74 -188 51 -224 -70 l-16 -55 -97 -46 c-53 -25 -160 -64
-237 -87 -396 -117 -442 -135 -470 -190 -38 -73 2 -204 71 -237 40 -19 19 -28
339 142 162 86 279 132 348 137 l38 3 -1 -685 c0 -377 -5 -759 -11 -850 -45
-742 -204 -1144 -476 -1200 -135 -28 -254 17 -377 143 -89 91 -136 163 -173
265 -24 65 -24 74 -24 342 1 298 -6 353 -54 437 -44 75 -154 116 -211 78 -106
-69 -127 -465 -38 -734 54 -165 176 -374 308 -526 148 -172 350 -275 536 -275
72 0 197 32 263 67 76 40 204 173 259 268 156 270 244 725 299 1555 7 96 13
406 14 688 l3 513 22 24 c38 41 104 60 205 60 50 -1 110 -4 135 -8 l45 -8 3
-287 c9 -904 83 -1801 188 -2269 75 -336 156 -477 319 -554 70 -34 156 -39
211 -13 82 39 176 182 249 378 57 154 97 312 221 871 63 286 118 529 123 540
10 25 32 -138 71 -531 49 -484 88 -693 163 -870 86 -205 195 -301 354 -312 94
-6 150 10 222 63 180 133 332 487 447 1040 103 499 145 956 124 1354 -26 494
-94 839 -187 942 -30 34 -41 39 -77 39 -33 0 -48 -6 -70 -29z"/>
<path d="M2485 3576 c-133 -44 -134 -45 -119 -138 l6 -36 67 28 c37 16 88 34
114 40 l47 12 0 59 c0 55 -2 59 -22 59 -13 -1 -54 -11 -93 -24z"/>
<path d="M3100 3539 c0 -55 2 -60 28 -71 101 -41 237 -114 292 -156 36 -27
105 -91 153 -141 49 -51 94 -90 100 -88 7 2 17 26 24 53 12 54 16 90 8 82 -3
-3 -38 28 -78 69 -141 147 -289 237 -484 298 l-43 13 0 -59z"/>
<path d="M4384 3273 c3 -21 6 -50 6 -65 0 -23 11 -32 88 -73 106 -56 214 -143
282 -228 63 -78 134 -217 151 -294 7 -32 15 -61 19 -66 3 -4 14 51 23 123 20
147 21 140 -54 251 -108 160 -279 294 -470 370 l-52 20 7 -38z"/>
<path d="M1828 3000 c-60 -125 -108 -314 -108 -425 0 -40 -2 -43 -72 -91 -40
-27 -111 -87 -158 -134 -188 -188 -297 -409 -319 -646 -8 -97 -3 -214 10 -214
4 0 31 -14 58 -32 28 -17 53 -29 56 -26 3 3 1 44 -4 91 -27 272 72 533 283
742 45 44 120 107 168 139 49 32 90 61 93 66 2 4 7 54 9 111 3 57 12 131 20
164 16 63 20 208 7 285 l-7 45 -36 -75z"/>
<path d="M5425 2433 c-4 -26 -9 -55 -11 -64 -3 -12 10 -25 42 -44 62 -37 187
-156 239 -230 187 -263 216 -597 80 -893 -90 -195 -272 -367 -467 -442 -168
-65 -90 -62 -1448 -61 -679 1 -1377 4 -1550 7 -305 5 -317 6 -380 31 -114 44
-226 114 -342 215 l-66 58 -71 0 c-39 0 -71 -4 -71 -9 0 -18 169 -180 241
-231 76 -53 210 -125 301 -161 65 -25 171 -27 1898 -29 1121 -1 1294 0 1355
14 386 84 671 357 777 744 18 64 21 105 21 242 0 137 -3 178 -21 242 -76 275
-238 490 -484 637 l-37 22 -6 -48z"/>
</g>
</svg>
